<?xml version="1.0" encoding="UTF-8"?>
<!DOCTYPE svg PUBLIC "-//W3C//DTD SVG 1.1//EN" "http://www.w3.org/Graphics/SVG/1.1/DTD/svg11.dtd">
<svg xmlns="http://www.w3.org/2000/svg" version="1.1" width="512px" height="512px" style="shape-rendering:geometricPrecision; text-rendering:geometricPrecision; image-rendering:optimizeQuality; fill-rule:evenodd; clip-rule:evenodd" xmlns:xlink="http://www.w3.org/1999/xlink">
<g><path style="opacity:0.984" fill="#fefffe" d="M 249.5,47.5 C 262.068,45.1856 269.568,50.1856 272,62.5C 272.613,121.503 272.446,180.503 271.5,239.5C 332.168,239.333 392.834,239.5 453.5,240C 464.06,246.133 466.56,254.633 461,265.5C 459.062,268.106 456.562,269.939 453.5,271C 392.834,271.5 332.168,271.667 271.5,271.5C 271.667,331.834 271.5,392.168 271,452.5C 265.564,463.09 257.397,465.924 246.5,461C 242.334,457.835 239.834,453.668 239,448.5C 238.169,389.596 238.336,330.763 239.5,272C 179.167,271.667 118.833,271.333 58.5,271C 47.9098,265.564 45.0764,257.397 50,246.5C 52.2643,243.567 55.0976,241.4 58.5,240C 118.832,239.5 179.166,239.333 239.5,239.5C 239.333,178.832 239.5,118.166 240,57.5C 242.022,52.98 245.189,49.6467 249.5,47.5 Z"/></g>
</svg>
