<?xml version="1.0" encoding="UTF-8"?>
<!DOCTYPE svg PUBLIC "-//W3C//DTD SVG 1.1//EN" "http://www.w3.org/Graphics/SVG/1.1/DTD/svg11.dtd">
<svg xmlns="http://www.w3.org/2000/svg" version="1.1" width="512px" height="512px" style="shape-rendering:geometricPrecision; text-rendering:geometricPrecision; image-rendering:optimizeQuality; fill-rule:evenodd; clip-rule:evenodd" xmlns:xlink="http://www.w3.org/1999/xlink">
<g><path style="opacity:0.976" fill="#fc0004" d="M 183.5,-0.5 C 231.5,-0.5 279.5,-0.5 327.5,-0.5C 345.453,4.95774 356.286,16.9577 360,35.5C 360.5,46.495 360.667,57.495 360.5,68.5C 379.17,68.3334 397.836,68.5001 416.5,69C 444.333,74.1667 460.833,90.6667 466,118.5C 466.667,136.833 466.667,155.167 466,173.5C 464.65,178.185 461.817,181.685 457.5,184C 450.589,185.384 443.589,185.884 436.5,185.5C 430.044,282.223 422.877,378.889 415,475.5C 408.784,494.219 396.284,506.219 377.5,511.5C 295.5,511.5 213.5,511.5 131.5,511.5C 111.406,505.904 98.9059,492.904 94,472.5C 86.9311,376.869 80.4311,281.202 74.5,185.5C 67.4112,185.884 60.4112,185.384 53.5,184C 49.1832,181.685 46.3498,178.185 45,173.5C 44.3333,155.167 44.3333,136.833 45,118.5C 50.1667,90.6667 66.6667,74.1667 94.5,69C 113.164,68.5001 131.83,68.3334 150.5,68.5C 150.333,57.1618 150.5,45.8284 151,34.5C 154.585,15.9297 165.418,4.26307 183.5,-0.5 Z M 192.5,31.5 C 235.881,31.0214 279.214,31.5214 322.5,33C 324.378,34.5429 325.878,36.3762 327,38.5C 327.5,48.4944 327.666,58.4944 327.5,68.5C 279.5,68.5 231.5,68.5 183.5,68.5C 183.334,58.4944 183.5,48.4944 184,38.5C 185.866,34.7838 188.699,32.4505 192.5,31.5 Z M 97.5,101.5 C 202.834,101.333 308.167,101.5 413.5,102C 422.178,104.678 428.345,110.178 432,118.5C 433.433,129.756 433.933,141.09 433.5,152.5C 314.833,152.5 196.167,152.5 77.5,152.5C 77.0666,141.09 77.5666,129.756 79,118.5C 82.8329,110.162 88.9996,104.495 97.5,101.5 Z M 107.5,185.5 C 206.167,185.5 304.833,185.5 403.5,185.5C 396.951,279.183 390.118,372.85 383,466.5C 380.498,474.005 375.331,478.172 367.5,479C 292.167,479.667 216.833,479.667 141.5,479C 131.413,477.578 126.247,471.744 126,461.5C 119.545,369.514 113.379,277.514 107.5,185.5 Z"/></g>
<g><path style="opacity:0.966" fill="#fb0004" d="M 204.5,219.5 C 215.568,217.609 222.734,221.943 226,232.5C 226.667,294.5 226.667,356.5 226,418.5C 221.376,431.225 212.876,434.725 200.5,429C 197.598,426.76 195.431,423.927 194,420.5C 193.333,357.167 193.333,293.833 194,230.5C 196.357,225.645 199.857,221.979 204.5,219.5 Z"/></g>
<g><path style="opacity:0.966" fill="#fc0004" d="M 296.5,219.5 C 306.651,217.988 313.485,221.988 317,231.5C 317.667,294.167 317.667,356.833 317,419.5C 311.874,431.473 303.374,434.64 291.5,429C 288.131,426.635 285.964,423.468 285,419.5C 284.333,356.833 284.333,294.167 285,231.5C 287.019,225.65 290.852,221.65 296.5,219.5 Z"/></g>
</svg>
