<?xml version="1.0" encoding="UTF-8"?>
<!DOCTYPE svg PUBLIC "-//W3C//DTD SVG 1.1//EN" "http://www.w3.org/Graphics/SVG/1.1/DTD/svg11.dtd">
<svg xmlns="http://www.w3.org/2000/svg" version="1.1" width="512px" height="512px" style="shape-rendering:geometricPrecision; text-rendering:geometricPrecision; image-rendering:optimizeQuality; fill-rule:evenodd; clip-rule:evenodd" xmlns:xlink="http://www.w3.org/1999/xlink">
<g><path style="opacity:0.997" fill="#02bc7c" d="M 316.5,43.5 C 329.511,41.5713 341.511,44.0713 352.5,51C 374.667,73.1667 396.833,95.3333 419,117.5C 428.65,133.235 428.983,149.235 420,165.5C 351.779,235.054 282.946,303.887 213.5,372C 210.343,373.578 207.009,374.578 203.5,375C 174.833,377.667 146.167,380.333 117.5,383C 97.3226,387.621 86.3226,379.788 84.5,359.5C 87.1831,329.486 90.0164,299.486 93,269.5C 94.8371,261.985 97.8371,254.985 102,248.5C 167.833,182.667 233.667,116.833 299.5,51C 305.001,47.9113 310.668,45.4113 316.5,43.5 Z M 325.5,85.5 C 344.632,104.132 363.632,122.965 382.5,142C 368.653,156.014 354.653,169.847 340.5,183.5C 321.5,165.167 302.833,146.5 284.5,127.5C 298.188,113.479 311.855,99.4793 325.5,85.5 Z"/></g>
<g><path style="opacity:0.97" fill="#02bc7d" d="M 101.5,425.5 C 204.167,425.333 306.834,425.5 409.5,426C 423.48,429.842 428.98,439.008 426,453.5C 424.056,462.398 418.556,467.565 409.5,469C 306.833,469.667 204.167,469.667 101.5,469C 87.52,465.158 82.02,455.992 85,441.5C 87.1875,432.672 92.6875,427.338 101.5,425.5 Z"/></g>
</svg>
