<?xml version="1.0" ?>
<!-- Uploaded to: SVG Repo, www.svgrepo.com, Generator: SVG Repo Mixer Tools -->
<svg width="800px" height="800px" viewBox="0 0 120 120" id="Layer_1" version="1.1" xml:space="preserve" xmlns="http://www.w3.org/2000/svg" xmlns:xlink="http://www.w3.org/1999/xlink">
<style type="text/css">
	.st0{fill:#E9FBFF;}
	.st1{fill:#FFDEB0;}
	.st2{fill:#FFD487;}
</style>
<g>
<path class="st0" d="M62.9,61.7L62.9,61.7c0-2.1,4.9-3.7,7-3.7h0c4.9,0,9-3.6,9.6-8.4l2.4-18.9c0.4-3.4-2.2-6.3-5.6-6.3H43.7   c-3.4,0-6,3-5.6,6.3l2.4,18.9c0.6,4.8,4.7,8.4,9.6,8.4h0c2.1,0,7,1.7,7,3.7v0c0,2.1-1.7,3.7-3.7,3.7h0c-4.9,0-12.2,3.6-12.8,8.4   l-2.4,18.9c-0.4,3.4,2.2,6.3,5.6,6.3h32.7c3.4,0,6-3,5.6-6.3l-2.4-18.9c-0.6-4.8-8-8.4-12.8-8.4h0C64.6,65.4,62.9,63.8,62.9,61.7z"/>
<path class="st1" d="M78.9,95.7c-0.7,0.8-1.8,1.2-2.8,1.2H43.9c-1.1,0-2.2-0.4-2.9-1.2C40.4,95,40.1,94,40.3,93l1.2-9.5   c0.6-5.3,16.7-8.4,16.7-10.3c0-1.7,0-11.1,0-11.6c0-0.6-0.1-1.1-0.2-1.6c-0.7-2.5-5.1-4.3-7.8-4.3c-3.8,0-7-3-7.5-6.8l-0.2-1.6   c0-0.3,0-0.3,0.1-0.3h34.9c0.1,0,0.2,0.1,0.1,0.2l-0.3,2c-0.5,3.7-3.7,6.5-7.4,6.5c-2.7,0-7.2,1.8-7.8,4.3c-0.2,0.5-0.2,1-0.2,1.6   c0,0.5,0,9.9,0,11.6c0,1.8,16.1,4.4,16.7,10.2l1.2,9.5C79.9,94,79.6,95,78.9,95.7z"/>
<g>
<path class="st2" d="M81.4,90.5H38.6c-2.4,0-4.3,1.9-4.3,4.3v1.7c0,2.4,1.9,4.3,4.3,4.3h42.9c2.4,0,4.3-1.9,4.3-4.3v-1.7    C85.7,92.5,83.8,90.5,81.4,90.5z"/>
<path class="st2" d="M81.4,19.2H38.6c-2.4,0-4.3,1.9-4.3,4.3v1.7c0,2.4,1.9,4.3,4.3,4.3h42.9c2.4,0,4.3-1.9,4.3-4.3v-1.7    C85.7,21.1,83.8,19.2,81.4,19.2z"/>
</g>
</g>
</svg>